<mxfile host="app.diagrams.net" modified="2024-04-29T09:44:47.977Z" agent="Mozilla/5.0 (Windows NT 10.0; Win64; x64) AppleWebKit/537.36 (KHTML, like Gecko) Chrome/124.0.0.0 Safari/537.36 Edg/124.0.0.0" etag="wzlC2lGwkEV0gcbAQw2H" version="24.2.1" type="device">
  <diagram name="Page-1" id="B6gYS9FQCaJ2CEXcoQuF">
    <mxGraphModel dx="827" dy="492" grid="1" gridSize="10" guides="1" tooltips="1" connect="1" arrows="1" fold="1" page="1" pageScale="1" pageWidth="827" pageHeight="1169" math="0" shadow="0">
      <root>
        <mxCell id="0" />
        <mxCell id="1" parent="0" />
        <mxCell id="FXT0yt8_dpBvpEUAmRAf-1" value="A" style="ellipse;whiteSpace=wrap;html=1;aspect=fixed;" vertex="1" parent="1">
          <mxGeometry x="60" y="230" width="50" height="50" as="geometry" />
        </mxCell>
        <mxCell id="FXT0yt8_dpBvpEUAmRAf-2" value="B" style="ellipse;whiteSpace=wrap;html=1;aspect=fixed;" vertex="1" parent="1">
          <mxGeometry x="60" y="350" width="50" height="50" as="geometry" />
        </mxCell>
        <mxCell id="FXT0yt8_dpBvpEUAmRAf-3" value="C" style="ellipse;whiteSpace=wrap;html=1;aspect=fixed;" vertex="1" parent="1">
          <mxGeometry x="170" y="290" width="50" height="50" as="geometry" />
        </mxCell>
        <mxCell id="FXT0yt8_dpBvpEUAmRAf-4" value="D" style="ellipse;whiteSpace=wrap;html=1;aspect=fixed;" vertex="1" parent="1">
          <mxGeometry x="290" y="150" width="50" height="50" as="geometry" />
        </mxCell>
        <mxCell id="FXT0yt8_dpBvpEUAmRAf-5" value="E" style="ellipse;whiteSpace=wrap;html=1;aspect=fixed;" vertex="1" parent="1">
          <mxGeometry x="290" y="240" width="50" height="50" as="geometry" />
        </mxCell>
        <mxCell id="FXT0yt8_dpBvpEUAmRAf-6" value="F" style="ellipse;whiteSpace=wrap;html=1;aspect=fixed;" vertex="1" parent="1">
          <mxGeometry x="290" y="340" width="50" height="50" as="geometry" />
        </mxCell>
        <mxCell id="FXT0yt8_dpBvpEUAmRAf-7" value="G" style="ellipse;whiteSpace=wrap;html=1;aspect=fixed;" vertex="1" parent="1">
          <mxGeometry x="290" y="430" width="50" height="50" as="geometry" />
        </mxCell>
        <mxCell id="FXT0yt8_dpBvpEUAmRAf-8" value="H" style="ellipse;whiteSpace=wrap;html=1;aspect=fixed;" vertex="1" parent="1">
          <mxGeometry x="460" y="290" width="50" height="50" as="geometry" />
        </mxCell>
        <mxCell id="FXT0yt8_dpBvpEUAmRAf-9" value="I" style="ellipse;whiteSpace=wrap;html=1;aspect=fixed;" vertex="1" parent="1">
          <mxGeometry x="590" y="290" width="50" height="50" as="geometry" />
        </mxCell>
        <mxCell id="FXT0yt8_dpBvpEUAmRAf-14" value="" style="endArrow=classic;html=1;rounded=0;entryX=0;entryY=0.5;entryDx=0;entryDy=0;exitX=1;exitY=1;exitDx=0;exitDy=0;" edge="1" parent="1" source="FXT0yt8_dpBvpEUAmRAf-1" target="FXT0yt8_dpBvpEUAmRAf-3">
          <mxGeometry relative="1" as="geometry">
            <mxPoint x="100" y="280" as="sourcePoint" />
            <mxPoint x="159.9999999999996" y="315.00000000000006" as="targetPoint" />
            <Array as="points" />
          </mxGeometry>
        </mxCell>
        <mxCell id="FXT0yt8_dpBvpEUAmRAf-19" value="" style="endArrow=classic;html=1;rounded=0;exitX=1;exitY=0;exitDx=0;exitDy=0;" edge="1" parent="1" source="FXT0yt8_dpBvpEUAmRAf-2" target="FXT0yt8_dpBvpEUAmRAf-3">
          <mxGeometry relative="1" as="geometry">
            <mxPoint x="110" y="357.5" as="sourcePoint" />
            <mxPoint x="169.9999999999996" y="392.50000000000006" as="targetPoint" />
            <Array as="points" />
          </mxGeometry>
        </mxCell>
        <mxCell id="FXT0yt8_dpBvpEUAmRAf-21" value="4" style="edgeLabel;html=1;align=center;verticalAlign=middle;resizable=0;points=[];" vertex="1" connectable="0" parent="FXT0yt8_dpBvpEUAmRAf-19">
          <mxGeometry x="0.1332" y="-2" relative="1" as="geometry">
            <mxPoint x="-13" y="-11" as="offset" />
          </mxGeometry>
        </mxCell>
        <mxCell id="FXT0yt8_dpBvpEUAmRAf-22" value="" style="endArrow=classic;html=1;rounded=0;entryX=0.067;entryY=0.74;entryDx=0;entryDy=0;entryPerimeter=0;" edge="1" parent="1" target="FXT0yt8_dpBvpEUAmRAf-4">
          <mxGeometry relative="1" as="geometry">
            <mxPoint x="220" y="320" as="sourcePoint" />
            <mxPoint x="290" y="350" as="targetPoint" />
            <Array as="points" />
          </mxGeometry>
        </mxCell>
        <mxCell id="FXT0yt8_dpBvpEUAmRAf-23" value="10" style="edgeLabel;html=1;align=center;verticalAlign=middle;resizable=0;points=[];" vertex="1" connectable="0" parent="FXT0yt8_dpBvpEUAmRAf-22">
          <mxGeometry x="0.1332" y="-2" relative="1" as="geometry">
            <mxPoint x="-13" y="-4" as="offset" />
          </mxGeometry>
        </mxCell>
        <mxCell id="FXT0yt8_dpBvpEUAmRAf-24" value="" style="endArrow=classic;html=1;rounded=0;entryX=0;entryY=0.5;entryDx=0;entryDy=0;" edge="1" parent="1" target="FXT0yt8_dpBvpEUAmRAf-6">
          <mxGeometry relative="1" as="geometry">
            <mxPoint x="220" y="320" as="sourcePoint" />
            <mxPoint x="290" y="350" as="targetPoint" />
            <Array as="points" />
          </mxGeometry>
        </mxCell>
        <mxCell id="FXT0yt8_dpBvpEUAmRAf-25" value="10" style="edgeLabel;html=1;align=center;verticalAlign=middle;resizable=0;points=[];" vertex="1" connectable="0" parent="FXT0yt8_dpBvpEUAmRAf-24">
          <mxGeometry x="0.1332" y="-2" relative="1" as="geometry">
            <mxPoint y="-13" as="offset" />
          </mxGeometry>
        </mxCell>
        <mxCell id="FXT0yt8_dpBvpEUAmRAf-26" value="" style="endArrow=classic;html=1;rounded=0;entryX=0;entryY=0.8;entryDx=0;entryDy=0;entryPerimeter=0;" edge="1" parent="1" target="FXT0yt8_dpBvpEUAmRAf-5">
          <mxGeometry relative="1" as="geometry">
            <mxPoint x="220" y="320" as="sourcePoint" />
            <mxPoint x="290" y="350" as="targetPoint" />
            <Array as="points" />
          </mxGeometry>
        </mxCell>
        <mxCell id="FXT0yt8_dpBvpEUAmRAf-27" value="10" style="edgeLabel;html=1;align=center;verticalAlign=middle;resizable=0;points=[];" vertex="1" connectable="0" parent="FXT0yt8_dpBvpEUAmRAf-26">
          <mxGeometry x="0.1332" y="-2" relative="1" as="geometry">
            <mxPoint y="-13" as="offset" />
          </mxGeometry>
        </mxCell>
        <mxCell id="FXT0yt8_dpBvpEUAmRAf-28" value="" style="endArrow=classic;html=1;rounded=0;entryX=0;entryY=0.2;entryDx=0;entryDy=0;entryPerimeter=0;" edge="1" parent="1" target="FXT0yt8_dpBvpEUAmRAf-7">
          <mxGeometry relative="1" as="geometry">
            <mxPoint x="220" y="320" as="sourcePoint" />
            <mxPoint x="290" y="355" as="targetPoint" />
            <Array as="points" />
          </mxGeometry>
        </mxCell>
        <mxCell id="FXT0yt8_dpBvpEUAmRAf-29" value="10" style="edgeLabel;html=1;align=center;verticalAlign=middle;resizable=0;points=[];" vertex="1" connectable="0" parent="FXT0yt8_dpBvpEUAmRAf-28">
          <mxGeometry x="0.1332" y="-2" relative="1" as="geometry">
            <mxPoint x="2" y="-14" as="offset" />
          </mxGeometry>
        </mxCell>
        <mxCell id="FXT0yt8_dpBvpEUAmRAf-30" value="" style="endArrow=classic;html=1;rounded=0;entryX=0;entryY=0;entryDx=0;entryDy=0;exitX=0.991;exitY=0.767;exitDx=0;exitDy=0;exitPerimeter=0;" edge="1" parent="1" source="FXT0yt8_dpBvpEUAmRAf-4" target="FXT0yt8_dpBvpEUAmRAf-8">
          <mxGeometry relative="1" as="geometry">
            <mxPoint x="350" y="195" as="sourcePoint" />
            <mxPoint x="420" y="230" as="targetPoint" />
            <Array as="points" />
          </mxGeometry>
        </mxCell>
        <mxCell id="FXT0yt8_dpBvpEUAmRAf-31" value="21" style="edgeLabel;html=1;align=center;verticalAlign=middle;resizable=0;points=[];" vertex="1" connectable="0" parent="FXT0yt8_dpBvpEUAmRAf-30">
          <mxGeometry x="0.1332" y="-2" relative="1" as="geometry">
            <mxPoint y="-13" as="offset" />
          </mxGeometry>
        </mxCell>
        <mxCell id="FXT0yt8_dpBvpEUAmRAf-32" value="" style="endArrow=classic;html=1;rounded=0;entryX=-0.028;entryY=0.341;entryDx=0;entryDy=0;entryPerimeter=0;" edge="1" parent="1" target="FXT0yt8_dpBvpEUAmRAf-8">
          <mxGeometry relative="1" as="geometry">
            <mxPoint x="340" y="270" as="sourcePoint" />
            <mxPoint x="410" y="305" as="targetPoint" />
            <Array as="points" />
          </mxGeometry>
        </mxCell>
        <mxCell id="FXT0yt8_dpBvpEUAmRAf-33" value="14" style="edgeLabel;html=1;align=center;verticalAlign=middle;resizable=0;points=[];" vertex="1" connectable="0" parent="FXT0yt8_dpBvpEUAmRAf-32">
          <mxGeometry x="0.1332" y="-2" relative="1" as="geometry">
            <mxPoint y="-13" as="offset" />
          </mxGeometry>
        </mxCell>
        <mxCell id="FXT0yt8_dpBvpEUAmRAf-34" value="" style="endArrow=classic;html=1;rounded=0;entryX=0.01;entryY=0.748;entryDx=0;entryDy=0;entryPerimeter=0;" edge="1" parent="1" target="FXT0yt8_dpBvpEUAmRAf-8">
          <mxGeometry relative="1" as="geometry">
            <mxPoint x="340" y="365" as="sourcePoint" />
            <mxPoint x="410" y="400" as="targetPoint" />
            <Array as="points" />
          </mxGeometry>
        </mxCell>
        <mxCell id="FXT0yt8_dpBvpEUAmRAf-35" value="21" style="edgeLabel;html=1;align=center;verticalAlign=middle;resizable=0;points=[];" vertex="1" connectable="0" parent="FXT0yt8_dpBvpEUAmRAf-34">
          <mxGeometry x="0.1332" y="-2" relative="1" as="geometry">
            <mxPoint y="-13" as="offset" />
          </mxGeometry>
        </mxCell>
        <mxCell id="FXT0yt8_dpBvpEUAmRAf-36" value="" style="endArrow=classic;html=1;rounded=0;entryX=0;entryY=1;entryDx=0;entryDy=0;" edge="1" parent="1" target="FXT0yt8_dpBvpEUAmRAf-8">
          <mxGeometry relative="1" as="geometry">
            <mxPoint x="340" y="450" as="sourcePoint" />
            <mxPoint x="410" y="485" as="targetPoint" />
            <Array as="points" />
          </mxGeometry>
        </mxCell>
        <mxCell id="FXT0yt8_dpBvpEUAmRAf-37" value="14" style="edgeLabel;html=1;align=center;verticalAlign=middle;resizable=0;points=[];" vertex="1" connectable="0" parent="FXT0yt8_dpBvpEUAmRAf-36">
          <mxGeometry x="0.1332" y="-2" relative="1" as="geometry">
            <mxPoint y="-13" as="offset" />
          </mxGeometry>
        </mxCell>
        <mxCell id="FXT0yt8_dpBvpEUAmRAf-38" value="" style="endArrow=classic;html=1;rounded=0;entryX=-0.024;entryY=0.646;entryDx=0;entryDy=0;entryPerimeter=0;" edge="1" parent="1" target="FXT0yt8_dpBvpEUAmRAf-9">
          <mxGeometry relative="1" as="geometry">
            <mxPoint x="510" y="320" as="sourcePoint" />
            <mxPoint x="580" y="355" as="targetPoint" />
            <Array as="points" />
          </mxGeometry>
        </mxCell>
        <mxCell id="FXT0yt8_dpBvpEUAmRAf-39" value="7" style="edgeLabel;html=1;align=center;verticalAlign=middle;resizable=0;points=[];" vertex="1" connectable="0" parent="FXT0yt8_dpBvpEUAmRAf-38">
          <mxGeometry x="0.1332" y="-2" relative="1" as="geometry">
            <mxPoint y="-13" as="offset" />
          </mxGeometry>
        </mxCell>
        <mxCell id="FXT0yt8_dpBvpEUAmRAf-40" value="" style="swimlane;startSize=0;" vertex="1" parent="1">
          <mxGeometry x="520" y="440" width="200" height="210" as="geometry" />
        </mxCell>
        <mxCell id="FXT0yt8_dpBvpEUAmRAf-44" value="4" style="text;html=1;align=center;verticalAlign=middle;resizable=0;points=[];autosize=1;strokeColor=none;fillColor=none;" vertex="1" parent="1">
          <mxGeometry x="115" y="268" width="30" height="30" as="geometry" />
        </mxCell>
        <mxCell id="FXT0yt8_dpBvpEUAmRAf-45" value="J" style="ellipse;whiteSpace=wrap;html=1;aspect=fixed;" vertex="1" parent="1">
          <mxGeometry x="720" y="290" width="50" height="50" as="geometry" />
        </mxCell>
        <mxCell id="FXT0yt8_dpBvpEUAmRAf-46" value="" style="endArrow=classic;html=1;rounded=0;" edge="1" parent="1">
          <mxGeometry relative="1" as="geometry">
            <mxPoint x="640" y="320" as="sourcePoint" />
            <mxPoint x="720" y="320" as="targetPoint" />
          </mxGeometry>
        </mxCell>
        <mxCell id="FXT0yt8_dpBvpEUAmRAf-48" value="7" style="text;html=1;align=center;verticalAlign=middle;resizable=0;points=[];autosize=1;strokeColor=none;fillColor=none;" vertex="1" parent="1">
          <mxGeometry x="665" y="298" width="30" height="30" as="geometry" />
        </mxCell>
        <mxCell id="FXT0yt8_dpBvpEUAmRAf-41" value="&lt;div style=&quot;line-height: 120%; font-size: 17px;&quot;&gt;&lt;b&gt;A:确定需求和功能&lt;/b&gt;&lt;/div&gt;&lt;div style=&quot;line-height: 120%; font-size: 17px;&quot;&gt;&lt;b&gt;B:确定技术栈&lt;/b&gt;&lt;/div&gt;&lt;div style=&quot;line-height: 120%; font-size: 17px;&quot;&gt;&lt;b&gt;C:数据库初步设计&lt;/b&gt;&lt;/div&gt;&lt;div style=&quot;line-height: 120%; font-size: 17px;&quot;&gt;&lt;b&gt;D:管理者模块后端开发&lt;/b&gt;&lt;/div&gt;&lt;div style=&quot;line-height: 120%; font-size: 17px;&quot;&gt;&lt;b&gt;E:管理者模块前端设计&lt;/b&gt;&lt;/div&gt;&lt;div style=&quot;line-height: 120%; font-size: 17px;&quot;&gt;&lt;b&gt;F:用户模块后端开发&lt;/b&gt;&lt;/div&gt;&lt;div style=&quot;line-height: 120%; font-size: 17px;&quot;&gt;&lt;b&gt;G:用户模块前端设计&lt;/b&gt;&lt;/div&gt;&lt;div style=&quot;line-height: 120%; font-size: 17px;&quot;&gt;&lt;b&gt;H:测试功能&lt;/b&gt;&lt;/div&gt;&lt;div style=&quot;line-height: 120%; font-size: 17px;&quot;&gt;&lt;b&gt;I:维护和更新&lt;/b&gt;&lt;/div&gt;&lt;div style=&quot;line-height: 120%; font-size: 17px;&quot;&gt;&lt;b&gt;J:项目完成&lt;/b&gt;&lt;/div&gt;" style="text;html=1;align=center;verticalAlign=middle;resizable=0;points=[];autosize=1;strokeColor=none;fillColor=none;" vertex="1" parent="1">
          <mxGeometry x="520" y="435" width="190" height="220" as="geometry" />
        </mxCell>
      </root>
    </mxGraphModel>
  </diagram>
</mxfile>
